<svg width="26" height="26" viewBox="0 0 26 26" fill="none" xmlns="http://www.w3.org/2000/svg">
<path fill-rule="evenodd" clip-rule="evenodd" d="M19.0919 6.36396C19.2794 6.5515 19.3848 6.80585 19.3848 7.07107C19.3848 7.33628 19.2794 7.59064 19.0919 7.77817L13.435 13.435C13.2475 13.6226 12.9931 13.7279 12.7279 13.7279C12.4627 13.7279 12.2084 13.6226 12.0208 13.435L6.36396 7.77817C6.17642 7.59064 6.07107 7.33628 6.07107 7.07107C6.07107 6.80585 6.17642 6.5515 6.36396 6.36396C6.5515 6.17642 6.80585 6.07107 7.07107 6.07107C7.33628 6.07107 7.59064 6.17642 7.77817 6.36396L12.7279 11.3137L17.6777 6.36396C17.8652 6.17642 18.1196 6.07107 18.3848 6.07107C18.65 6.07107 18.9043 6.17642 19.0919 6.36396Z" fill="black"/>
<path fill-rule="evenodd" clip-rule="evenodd" d="M12.0208 12.0208C12.2084 11.8333 12.4627 11.7279 12.7279 11.7279C12.9931 11.7279 13.2475 11.8333 13.435 12.0208L19.0919 17.6777C19.2794 17.8652 19.3848 18.1196 19.3848 18.3848C19.3848 18.65 19.2794 18.9044 19.0919 19.0919C18.9043 19.2794 18.65 19.3848 18.3848 19.3848C18.1196 19.3848 17.8652 19.2794 17.6777 19.0919L12.7279 14.1421L7.77817 19.0919C7.59064 19.2794 7.33628 19.3848 7.07107 19.3848C6.80585 19.3848 6.5515 19.2794 6.36396 19.0919C6.17642 18.9044 6.07107 18.65 6.07107 18.3848C6.07107 18.1196 6.17642 17.8652 6.36396 17.6777L12.0208 12.0208Z" fill="black"/>
</svg>
